<svg xmlns="http://www.w3.org/2000/svg" xmlns:xlink="http://www.w3.org/1999/xlink" width="500" zoomAndPan="magnify" viewBox="0 0 375 172.499995" height="230" preserveAspectRatio="xMidYMid meet" version="1.0"><defs><g/><clipPath id="bd3cacd1a5"><path d="M 75 0 L 119 0 L 119 44 L 75 44 Z M 75 0 " clip-rule="nonzero"/></clipPath><clipPath id="5fd0419f31"><path d="M 104.617188 43.375 L 75.65625 14.417969 L 89.492188 0.578125 L 118.453125 29.539062 Z M 104.617188 43.375 " clip-rule="nonzero"/></clipPath><clipPath id="05c2010e22"><path d="M 104.617188 43.375 L 75.65625 14.417969 L 89.492188 0.578125 L 118.453125 29.539062 Z M 104.617188 43.375 " clip-rule="nonzero"/></clipPath><clipPath id="fd4fd13fa2"><path d="M 75 0 L 119 0 L 119 44 L 75 44 Z M 75 0 " clip-rule="nonzero"/></clipPath><clipPath id="5dfb5543bd"><path d="M 104.617188 43.375 L 75.53125 14.292969 L 89.28125 0.542969 L 118.363281 29.625 Z M 104.617188 43.375 " clip-rule="nonzero"/></clipPath><clipPath id="2a6f37899d"><path d="M 104.613281 43.371094 L 74.253906 13.015625 L 88.621094 -1.351562 L 118.980469 29.007812 Z M 104.613281 43.371094 " clip-rule="nonzero"/></clipPath><clipPath id="a22a2bb54c"><path d="M 104.613281 43.371094 L 75.535156 14.292969 L 89.28125 0.546875 L 118.363281 29.625 Z M 104.613281 43.371094 " clip-rule="nonzero"/></clipPath><clipPath id="ce22981e94"><path d="M 54 6 L 119 6 L 119 71 L 54 71 Z M 54 6 " clip-rule="nonzero"/></clipPath><clipPath id="a685abd28d"><path d="M 45.863281 15.328125 L 109.789062 -2.101562 L 127.214844 61.824219 L 63.289062 79.25 Z M 45.863281 15.328125 " clip-rule="nonzero"/></clipPath><clipPath id="7e9bf19816"><path d="M 77.828125 6.613281 L 118.5 29.863281 L 95.253906 70.539062 L 54.578125 47.289062 L 77.828125 6.613281 " clip-rule="nonzero"/></clipPath><clipPath id="b0d1c0440b"><path d="M 54 6 L 119 6 L 119 71 L 54 71 Z M 54 6 " clip-rule="nonzero"/></clipPath><clipPath id="670181213f"><path d="M 45.863281 15.328125 L 110.078125 -2.179688 L 127.582031 62.035156 L 63.367188 79.539062 Z M 45.863281 15.328125 " clip-rule="nonzero"/></clipPath><clipPath id="191dc6a0fd"><path d="M 45.863281 15.328125 L 110.078125 -2.179688 L 127.582031 62.035156 L 63.367188 79.539062 Z M 45.863281 15.328125 " clip-rule="nonzero"/></clipPath><clipPath id="b752450351"><path d="M 77.972656 6.574219 L 118.832031 29.929688 L 95.476562 70.789062 L 54.617188 47.433594 L 77.972656 6.574219 " clip-rule="nonzero"/></clipPath><clipPath id="0e34c1bbf5"><path d="M 54 17 L 119 17 L 119 82 L 54 82 Z M 54 17 " clip-rule="nonzero"/></clipPath><clipPath id="f03a42e6e6"><path d="M 35.0625 37.21875 L 98.699219 -2.101562 L 138.019531 61.53125 L 74.382812 100.851562 Z M 35.0625 37.21875 " clip-rule="nonzero"/></clipPath><clipPath id="a3e0332eae"><path d="M 66.878906 17.558594 L 118.359375 29.714844 L 106.199219 81.191406 L 54.722656 69.035156 L 66.878906 17.558594 " clip-rule="nonzero"/></clipPath><clipPath id="fb464e44c8"><path d="M 54 17 L 119 17 L 119 82 L 54 82 Z M 54 17 " clip-rule="nonzero"/></clipPath><clipPath id="a947e549e9"><path d="M 35.0625 37.21875 L 98.679688 -2.089844 L 137.992188 61.527344 L 74.371094 100.835938 Z M 35.0625 37.21875 " clip-rule="nonzero"/></clipPath><clipPath id="6cab1e9d06"><path d="M 35.0625 37.21875 L 98.679688 -2.089844 L 137.992188 61.527344 L 74.371094 100.835938 Z M 35.0625 37.21875 " clip-rule="nonzero"/></clipPath><clipPath id="08b54e7086"><path d="M 66.871094 17.5625 L 118.335938 29.71875 L 106.183594 81.179688 L 54.71875 69.027344 L 66.871094 17.5625 " clip-rule="nonzero"/></clipPath><clipPath id="c7c43baece"><path d="M 5 128 L 48 128 L 48 172 L 5 172 Z M 5 128 " clip-rule="nonzero"/></clipPath><clipPath id="5224b2f81b"><path d="M 19.03125 128.625 L 47.988281 157.582031 L 34.152344 171.421875 L 5.191406 142.460938 Z M 19.03125 128.625 " clip-rule="nonzero"/></clipPath><clipPath id="71323b1e5e"><path d="M 19.03125 128.625 L 47.988281 157.582031 L 34.152344 171.421875 L 5.191406 142.460938 Z M 19.03125 128.625 " clip-rule="nonzero"/></clipPath><clipPath id="51218a8825"><path d="M 5 128 L 49 128 L 49 172 L 5 172 Z M 5 128 " clip-rule="nonzero"/></clipPath><clipPath id="0aa854438e"><path d="M 19.03125 128.625 L 48.113281 157.707031 L 34.363281 171.457031 L 5.28125 142.371094 Z M 19.03125 128.625 " clip-rule="nonzero"/></clipPath><clipPath id="0c718e5a05"><path d="M 19.03125 128.625 L 49.390625 158.984375 L 35.023438 173.351562 L 4.664062 142.992188 Z M 19.03125 128.625 " clip-rule="nonzero"/></clipPath><clipPath id="ee6425bb43"><path d="M 19.03125 128.625 L 48.109375 157.703125 L 34.363281 171.453125 L 5.285156 142.375 Z M 19.03125 128.625 " clip-rule="nonzero"/></clipPath><clipPath id="6a76b403a0"><path d="M 5 101 L 70 101 L 70 166 L 5 166 Z M 5 101 " clip-rule="nonzero"/></clipPath><clipPath id="4c2c686081"><path d="M 77.789062 156.675781 L 13.863281 174.101562 L -3.5625 110.179688 L 60.363281 92.75 Z M 77.789062 156.675781 " clip-rule="nonzero"/></clipPath><clipPath id="26a1ca3207"><path d="M 45.824219 165.390625 L 5.148438 142.140625 L 28.398438 101.464844 L 69.074219 124.714844 L 45.824219 165.390625 " clip-rule="nonzero"/></clipPath><clipPath id="fe0970f422"><path d="M 4 101 L 70 101 L 70 166 L 4 166 Z M 4 101 " clip-rule="nonzero"/></clipPath><clipPath id="4080baa327"><path d="M 77.789062 156.675781 L 13.574219 174.179688 L -3.929688 109.96875 L 60.28125 92.460938 Z M 77.789062 156.675781 " clip-rule="nonzero"/></clipPath><clipPath id="9fe10429ba"><path d="M 77.789062 156.675781 L 13.574219 174.179688 L -3.929688 109.96875 L 60.28125 92.460938 Z M 77.789062 156.675781 " clip-rule="nonzero"/></clipPath><clipPath id="e72df64ae4"><path d="M 45.679688 165.429688 L 4.820312 142.074219 L 28.175781 101.214844 L 69.035156 124.570312 L 45.679688 165.429688 " clip-rule="nonzero"/></clipPath><clipPath id="2c9e057b66"><path d="M 5 90 L 69 90 L 69 155 L 5 155 Z M 5 90 " clip-rule="nonzero"/></clipPath><clipPath id="3225f600f2"><path d="M 88.585938 134.78125 L 24.949219 174.101562 L -14.371094 110.464844 L 49.265625 71.148438 Z M 88.585938 134.78125 " clip-rule="nonzero"/></clipPath><clipPath id="a0a3370c54"><path d="M 56.769531 154.441406 L 5.289062 142.285156 L 17.449219 90.808594 L 68.925781 102.964844 L 56.769531 154.441406 " clip-rule="nonzero"/></clipPath><clipPath id="aee3d4c634"><path d="M 5 90 L 69 90 L 69 155 L 5 155 Z M 5 90 " clip-rule="nonzero"/></clipPath><clipPath id="7db34c3a07"><path d="M 88.585938 134.78125 L 24.964844 174.089844 L -14.34375 110.472656 L 49.277344 71.164062 Z M 88.585938 134.78125 " clip-rule="nonzero"/></clipPath><clipPath id="ec1da5b82f"><path d="M 88.585938 134.78125 L 24.964844 174.089844 L -14.34375 110.472656 L 49.277344 71.164062 Z M 88.585938 134.78125 " clip-rule="nonzero"/></clipPath><clipPath id="65f684c9dc"><path d="M 56.777344 154.4375 L 5.3125 142.28125 L 17.464844 90.816406 L 68.929688 102.972656 L 56.777344 154.4375 " clip-rule="nonzero"/></clipPath><clipPath id="87bee31367"><path d="M 5.289062 29.425781 L 118.4375 29.425781 L 118.4375 142.574219 L 5.289062 142.574219 Z M 5.289062 29.425781 " clip-rule="nonzero"/></clipPath><clipPath id="b610fe391b"><path d="M -51.285156 86 L 61.863281 -27.148438 L 175.011719 86 L 61.863281 199.148438 Z M -51.285156 86 " clip-rule="nonzero"/></clipPath><clipPath id="28d9d9fee7"><path d="M 5.296875 29.417969 L 118.457031 29.417969 L 118.457031 142.582031 L 5.296875 142.582031 Z M 5.296875 29.417969 " clip-rule="nonzero"/></clipPath><clipPath id="21bcc4163d"><path d="M -51.285156 86 L 61.878906 -27.164062 L 175.039062 86 L 61.878906 199.160156 Z M -51.285156 86 " clip-rule="nonzero"/></clipPath><clipPath id="cf8fdc4126"><path d="M -51.285156 86 L 61.878906 -27.164062 L 175.039062 86 L 61.878906 199.160156 Z M -51.285156 86 " clip-rule="nonzero"/></clipPath></defs><g fill="#1b5d1d" fill-opacity="1"><g transform="translate(129.304389, 81.90763)"><g><path d="M 15.328125 -14.5625 L 16.21875 -8.46875 L 17.515625 -13.96875 L 26.65625 -46.21875 L 31.796875 -46.21875 L 40.71875 -13.96875 L 41.984375 -8.375 L 42.96875 -14.59375 L 50.140625 -46.21875 L 56.265625 -46.21875 L 45.0625 0 L 39.515625 0 L 30 -33.671875 L 29.265625 -37.203125 L 28.53125 -33.671875 L 18.65625 0 L 13.109375 0 L 1.9375 -46.21875 L 8.03125 -46.21875 Z M 15.328125 -14.5625 "/></g></g></g><g fill="#1b5d1d" fill-opacity="1"><g transform="translate(186.96029, 81.90763)"><g><path d="M 18.6875 0.640625 C 14.039062 0.640625 10.253906 -0.882812 7.328125 -3.9375 C 4.410156 -7 2.953125 -11.09375 2.953125 -16.21875 L 2.953125 -17.296875 C 2.953125 -20.703125 3.601562 -23.742188 4.90625 -26.421875 C 6.207031 -29.097656 8.023438 -31.191406 10.359375 -32.703125 C 12.703125 -34.210938 15.238281 -34.96875 17.96875 -34.96875 C 22.425781 -34.96875 25.894531 -33.5 28.375 -30.5625 C 30.851562 -27.625 32.09375 -23.414062 32.09375 -17.9375 L 32.09375 -15.484375 L 8.828125 -15.484375 C 8.910156 -12.097656 9.894531 -9.363281 11.78125 -7.28125 C 13.675781 -5.195312 16.085938 -4.15625 19.015625 -4.15625 C 21.085938 -4.15625 22.84375 -4.578125 24.28125 -5.421875 C 25.71875 -6.273438 26.976562 -7.398438 28.0625 -8.796875 L 31.640625 -6 C 28.765625 -1.570312 24.445312 0.640625 18.6875 0.640625 Z M 17.96875 -30.15625 C 15.59375 -30.15625 13.597656 -29.289062 11.984375 -27.5625 C 10.378906 -25.84375 9.390625 -23.425781 9.015625 -20.3125 L 26.21875 -20.3125 L 26.21875 -20.75 C 26.050781 -23.738281 25.242188 -26.050781 23.796875 -27.6875 C 22.359375 -29.332031 20.414062 -30.15625 17.96875 -30.15625 Z M 17.96875 -30.15625 "/></g></g></g><g fill="#1b5d1d" fill-opacity="1"><g transform="translate(221.388828, 81.90763)"><g><path d="M 33.515625 -16.796875 C 33.515625 -11.546875 32.304688 -7.328125 29.890625 -4.140625 C 27.484375 -0.953125 24.25 0.640625 20.1875 0.640625 C 15.84375 0.640625 12.488281 -0.894531 10.125 -3.96875 L 9.84375 0 L 4.4375 0 L 4.4375 -48.75 L 10.3125 -48.75 L 10.3125 -30.5625 C 12.6875 -33.5 15.957031 -34.96875 20.125 -34.96875 C 24.289062 -34.96875 27.5625 -33.390625 29.9375 -30.234375 C 32.320312 -27.085938 33.515625 -22.773438 33.515625 -17.296875 Z M 27.640625 -17.453125 C 27.640625 -21.453125 26.867188 -24.539062 25.328125 -26.71875 C 23.785156 -28.90625 21.5625 -30 18.65625 -30 C 14.789062 -30 12.007812 -28.195312 10.3125 -24.59375 L 10.3125 -9.75 C 12.113281 -6.144531 14.914062 -4.34375 18.71875 -4.34375 C 21.539062 -4.34375 23.734375 -5.429688 25.296875 -7.609375 C 26.859375 -9.796875 27.640625 -13.078125 27.640625 -17.453125 Z M 27.640625 -17.453125 "/></g></g></g><g fill="#1b5d1d" fill-opacity="1"><g transform="translate(129.785845, 136.616205)"><g><path d="M 18.984375 -20.59375 C 13.753906 -22.101562 9.945312 -23.953125 7.5625 -26.140625 C 5.1875 -28.328125 4 -31.03125 4 -34.25 C 4 -37.882812 5.453125 -40.890625 8.359375 -43.265625 C 11.273438 -45.648438 15.054688 -46.84375 19.703125 -46.84375 C 22.878906 -46.84375 25.707031 -46.226562 28.1875 -45 C 30.675781 -43.78125 32.601562 -42.085938 33.96875 -39.921875 C 35.332031 -37.765625 36.015625 -35.40625 36.015625 -32.84375 L 29.890625 -32.84375 C 29.890625 -35.632812 29 -37.828125 27.21875 -39.421875 C 25.445312 -41.023438 22.941406 -41.828125 19.703125 -41.828125 C 16.703125 -41.828125 14.359375 -41.164062 12.671875 -39.84375 C 10.992188 -38.519531 10.15625 -36.6875 10.15625 -34.34375 C 10.15625 -32.457031 10.953125 -30.863281 12.546875 -29.5625 C 14.148438 -28.257812 16.867188 -27.066406 20.703125 -25.984375 C 24.546875 -24.910156 27.550781 -23.722656 29.71875 -22.421875 C 31.882812 -21.117188 33.492188 -19.597656 34.546875 -17.859375 C 35.597656 -16.128906 36.125 -14.09375 36.125 -11.75 C 36.125 -8 34.660156 -4.992188 31.734375 -2.734375 C 28.816406 -0.484375 24.914062 0.640625 20.03125 0.640625 C 16.851562 0.640625 13.890625 0.03125 11.140625 -1.1875 C 8.390625 -2.40625 6.269531 -4.070312 4.78125 -6.1875 C 3.289062 -8.300781 2.546875 -10.703125 2.546875 -13.390625 L 8.671875 -13.390625 C 8.671875 -10.597656 9.703125 -8.390625 11.765625 -6.765625 C 13.828125 -5.148438 16.582031 -4.34375 20.03125 -4.34375 C 23.238281 -4.34375 25.703125 -5 27.421875 -6.3125 C 29.140625 -7.625 30 -9.410156 30 -11.671875 C 30 -13.941406 29.203125 -15.695312 27.609375 -16.9375 C 26.023438 -18.175781 23.148438 -19.394531 18.984375 -20.59375 Z M 18.984375 -20.59375 "/></g></g></g><g fill="#1b5d1d" fill-opacity="1"><g transform="translate(168.339461, 136.616205)"><g><path d="M 18.6875 0.640625 C 14.039062 0.640625 10.253906 -0.882812 7.328125 -3.9375 C 4.410156 -7 2.953125 -11.09375 2.953125 -16.21875 L 2.953125 -17.296875 C 2.953125 -20.703125 3.601562 -23.742188 4.90625 -26.421875 C 6.207031 -29.097656 8.023438 -31.191406 10.359375 -32.703125 C 12.703125 -34.210938 15.238281 -34.96875 17.96875 -34.96875 C 22.425781 -34.96875 25.894531 -33.5 28.375 -30.5625 C 30.851562 -27.625 32.09375 -23.414062 32.09375 -17.9375 L 32.09375 -15.484375 L 8.828125 -15.484375 C 8.910156 -12.097656 9.894531 -9.363281 11.78125 -7.28125 C 13.675781 -5.195312 16.085938 -4.15625 19.015625 -4.15625 C 21.085938 -4.15625 22.84375 -4.578125 24.28125 -5.421875 C 25.71875 -6.273438 26.976562 -7.398438 28.0625 -8.796875 L 31.640625 -6 C 28.765625 -1.570312 24.445312 0.640625 18.6875 0.640625 Z M 17.96875 -30.15625 C 15.59375 -30.15625 13.597656 -29.289062 11.984375 -27.5625 C 10.378906 -25.84375 9.390625 -23.425781 9.015625 -20.3125 L 26.21875 -20.3125 L 26.21875 -20.75 C 26.050781 -23.738281 25.242188 -26.050781 23.796875 -27.6875 C 22.359375 -29.332031 20.414062 -30.15625 17.96875 -30.15625 Z M 17.96875 -30.15625 "/></g></g></g><g fill="#1b5d1d" fill-opacity="1"><g transform="translate(202.767998, 136.616205)"><g><path d="M 21.046875 -29.078125 C 20.148438 -29.222656 19.1875 -29.296875 18.15625 -29.296875 C 14.300781 -29.296875 11.6875 -27.65625 10.3125 -24.375 L 10.3125 0 L 4.4375 0 L 4.4375 -34.34375 L 10.15625 -34.34375 L 10.25 -30.375 C 12.175781 -33.4375 14.90625 -34.96875 18.4375 -34.96875 C 19.582031 -34.96875 20.453125 -34.820312 21.046875 -34.53125 Z M 21.046875 -29.078125 "/></g></g></g><g fill="#1b5d1d" fill-opacity="1"><g transform="translate(224.757838, 136.616205)"><g><path d="M 15.78125 -7.96875 L 24.28125 -34.34375 L 30.28125 -34.34375 L 17.96875 0 L 13.484375 0 L 1.046875 -34.34375 L 7.046875 -34.34375 Z M 15.78125 -7.96875 "/></g></g></g><g fill="#1b5d1d" fill-opacity="1"><g transform="translate(256.235359, 136.616205)"><g><path d="M 10.828125 0 L 4.953125 0 L 4.953125 -34.34375 L 10.828125 -34.34375 Z M 4.46875 -43.453125 C 4.46875 -44.398438 4.757812 -45.203125 5.34375 -45.859375 C 5.925781 -46.515625 6.789062 -46.84375 7.9375 -46.84375 C 9.082031 -46.84375 9.945312 -46.515625 10.53125 -45.859375 C 11.125 -45.203125 11.421875 -44.394531 11.421875 -43.4375 C 11.421875 -42.488281 11.125 -41.695312 10.53125 -41.0625 C 9.945312 -40.4375 9.082031 -40.125 7.9375 -40.125 C 6.789062 -40.125 5.925781 -40.4375 5.34375 -41.0625 C 4.757812 -41.695312 4.46875 -42.492188 4.46875 -43.453125 Z M 4.46875 -43.453125 "/></g></g></g><g fill="#1b5d1d" fill-opacity="1"><g transform="translate(272.00585, 136.616205)"><g><path d="M 18.21875 -4.15625 C 20.3125 -4.15625 22.140625 -4.789062 23.703125 -6.0625 C 25.273438 -7.332031 26.144531 -8.921875 26.3125 -10.828125 L 31.859375 -10.828125 C 31.753906 -8.859375 31.078125 -6.984375 29.828125 -5.203125 C 28.585938 -3.429688 26.921875 -2.015625 24.828125 -0.953125 C 22.742188 0.109375 20.539062 0.640625 18.21875 0.640625 C 13.539062 0.640625 9.820312 -0.921875 7.0625 -4.046875 C 4.300781 -7.171875 2.921875 -11.441406 2.921875 -16.859375 L 2.921875 -17.84375 C 2.921875 -21.1875 3.535156 -24.15625 4.765625 -26.75 C 5.992188 -29.351562 7.753906 -31.375 10.046875 -32.8125 C 12.335938 -34.25 15.050781 -34.96875 18.1875 -34.96875 C 22.039062 -34.96875 25.238281 -33.816406 27.78125 -31.515625 C 30.332031 -29.210938 31.691406 -26.21875 31.859375 -22.53125 L 26.3125 -22.53125 C 26.144531 -24.75 25.300781 -26.570312 23.78125 -28 C 22.269531 -29.4375 20.40625 -30.15625 18.1875 -30.15625 C 15.207031 -30.15625 12.894531 -29.078125 11.25 -26.921875 C 9.613281 -24.773438 8.796875 -21.671875 8.796875 -17.609375 L 8.796875 -16.5 C 8.796875 -12.539062 9.609375 -9.492188 11.234375 -7.359375 C 12.859375 -5.222656 15.1875 -4.15625 18.21875 -4.15625 Z M 18.21875 -4.15625 "/></g></g></g><g fill="#1b5d1d" fill-opacity="1"><g transform="translate(306.021879, 136.616205)"><g><path d="M 18.6875 0.640625 C 14.039062 0.640625 10.253906 -0.882812 7.328125 -3.9375 C 4.410156 -7 2.953125 -11.09375 2.953125 -16.21875 L 2.953125 -17.296875 C 2.953125 -20.703125 3.601562 -23.742188 4.90625 -26.421875 C 6.207031 -29.097656 8.023438 -31.191406 10.359375 -32.703125 C 12.703125 -34.210938 15.238281 -34.96875 17.96875 -34.96875 C 22.425781 -34.96875 25.894531 -33.5 28.375 -30.5625 C 30.851562 -27.625 32.09375 -23.414062 32.09375 -17.9375 L 32.09375 -15.484375 L 8.828125 -15.484375 C 8.910156 -12.097656 9.894531 -9.363281 11.78125 -7.28125 C 13.675781 -5.195312 16.085938 -4.15625 19.015625 -4.15625 C 21.085938 -4.15625 22.84375 -4.578125 24.28125 -5.421875 C 25.71875 -6.273438 26.976562 -7.398438 28.0625 -8.796875 L 31.640625 -6 C 28.765625 -1.570312 24.445312 0.640625 18.6875 0.640625 Z M 17.96875 -30.15625 C 15.59375 -30.15625 13.597656 -29.289062 11.984375 -27.5625 C 10.378906 -25.84375 9.390625 -23.425781 9.015625 -20.3125 L 26.21875 -20.3125 L 26.21875 -20.75 C 26.050781 -23.738281 25.242188 -26.050781 23.796875 -27.6875 C 22.359375 -29.332031 20.414062 -30.15625 17.96875 -30.15625 Z M 17.96875 -30.15625 "/></g></g></g><g fill="#1b5d1d" fill-opacity="1"><g transform="translate(340.450428, 136.616205)"><g><path d="M 24.4375 -9.109375 C 24.4375 -10.691406 23.835938 -11.921875 22.640625 -12.796875 C 21.453125 -13.679688 19.367188 -14.441406 16.390625 -15.078125 C 13.421875 -15.710938 11.0625 -16.472656 9.3125 -17.359375 C 7.570312 -18.242188 6.28125 -19.300781 5.4375 -20.53125 C 4.601562 -21.757812 4.1875 -23.222656 4.1875 -24.921875 C 4.1875 -27.734375 5.375 -30.109375 7.75 -32.046875 C 10.132812 -33.992188 13.179688 -34.96875 16.890625 -34.96875 C 20.773438 -34.96875 23.929688 -33.960938 26.359375 -31.953125 C 28.785156 -29.953125 30 -27.382812 30 -24.25 L 24.09375 -24.25 C 24.09375 -25.851562 23.410156 -27.238281 22.046875 -28.40625 C 20.679688 -29.570312 18.960938 -30.15625 16.890625 -30.15625 C 14.742188 -30.15625 13.066406 -29.6875 11.859375 -28.75 C 10.660156 -27.820312 10.0625 -26.609375 10.0625 -25.109375 C 10.0625 -23.691406 10.617188 -22.625 11.734375 -21.90625 C 12.859375 -21.1875 14.882812 -20.5 17.8125 -19.84375 C 20.75 -19.1875 23.125 -18.398438 24.9375 -17.484375 C 26.757812 -16.578125 28.109375 -15.484375 28.984375 -14.203125 C 29.867188 -12.921875 30.3125 -11.359375 30.3125 -9.515625 C 30.3125 -6.453125 29.082031 -3.992188 26.625 -2.140625 C 24.175781 -0.285156 20.992188 0.640625 17.078125 0.640625 C 14.328125 0.640625 11.894531 0.15625 9.78125 -0.8125 C 7.664062 -1.789062 6.007812 -3.148438 4.8125 -4.890625 C 3.613281 -6.640625 3.015625 -8.53125 3.015625 -10.5625 L 8.890625 -10.5625 C 8.992188 -8.601562 9.78125 -7.046875 11.25 -5.890625 C 12.71875 -4.734375 14.660156 -4.15625 17.078125 -4.15625 C 19.296875 -4.15625 21.078125 -4.601562 22.421875 -5.5 C 23.765625 -6.40625 24.4375 -7.609375 24.4375 -9.109375 Z M 24.4375 -9.109375 "/></g></g></g><g clip-path="url(#bd3cacd1a5)"><g clip-path="url(#5fd0419f31)"><g clip-path="url(#05c2010e22)"><path fill="#d3d3d3" d="M 104.617188 43.375 L 75.65625 14.417969 L 89.492188 0.578125 L 118.453125 29.539062 Z M 104.617188 43.375 " fill-opacity="1" fill-rule="nonzero"/></g></g></g><g clip-path="url(#fd4fd13fa2)"><g clip-path="url(#5dfb5543bd)"><g clip-path="url(#2a6f37899d)"><g clip-path="url(#a22a2bb54c)"><path stroke-linecap="butt" transform="matrix(-0.531212, -0.531212, 0.525638, -0.525638, 104.612857, 43.372795)" fill="none" stroke-linejoin="miter" d="M 0.00120251 0.0020221 L 54.740424 0.0020221 L 54.740424 26.153256 L -0.00247423 26.156972 L 0.00120251 0.0020221 " stroke="#1b5d1d" stroke-width="4" stroke-opacity="1" stroke-miterlimit="4"/></g></g></g></g><g clip-path="url(#ce22981e94)"><g clip-path="url(#a685abd28d)"><g clip-path="url(#7e9bf19816)"><path fill="#d3d3d3" d="M 45.863281 15.328125 L 109.789062 -2.101562 L 127.214844 61.824219 L 63.289062 79.25 Z M 45.863281 15.328125 " fill-opacity="1" fill-rule="nonzero"/></g></g></g><g clip-path="url(#b0d1c0440b)"><g clip-path="url(#670181213f)"><g clip-path="url(#191dc6a0fd)"><g clip-path="url(#b752450351)"><path stroke-linecap="butt" transform="matrix(0.724812, -0.19759, 0.19759, 0.724812, 45.863897, 15.326723)" fill="none" stroke-linejoin="miter" d="M 44.299225 0.000776016 L 88.595525 44.299106 L 44.297194 88.595406 L 0.000895005 44.297075 L 44.299225 0.000776016 " stroke="#1b5d1d" stroke-width="4" stroke-opacity="1" stroke-miterlimit="4"/></g></g></g></g><g clip-path="url(#0e34c1bbf5)"><g clip-path="url(#f03a42e6e6)"><g clip-path="url(#a3e0332eae)"><path fill="#d3d3d3" d="M 35.0625 37.21875 L 98.699219 -2.101562 L 138.019531 61.53125 L 74.382812 100.851562 Z M 35.0625 37.21875 " fill-opacity="1" fill-rule="nonzero"/></g></g></g><g clip-path="url(#fb464e44c8)"><g clip-path="url(#a947e549e9)"><g clip-path="url(#6cab1e9d06)"><g clip-path="url(#08b54e7086)"><path stroke-linecap="butt" transform="matrix(0.636084, -0.393034, 0.393034, 0.636084, 35.063233, 37.21807)" fill="none" stroke-linejoin="miter" d="M 50.006892 -0.00181398 L 100.014422 50.008762 L 50.011037 100.014595 L 0.000760039 50.008463 L 50.006892 -0.00181398 " stroke="#1b5d1d" stroke-width="4" stroke-opacity="1" stroke-miterlimit="4"/></g></g></g></g><g clip-path="url(#c7c43baece)"><g clip-path="url(#5224b2f81b)"><g clip-path="url(#71323b1e5e)"><path fill="#d3d3d3" d="M 19.03125 128.625 L 47.988281 157.582031 L 34.152344 171.421875 L 5.191406 142.460938 Z M 19.03125 128.625 " fill-opacity="1" fill-rule="nonzero"/></g></g></g><g clip-path="url(#51218a8825)"><g clip-path="url(#0aa854438e)"><g clip-path="url(#0c718e5a05)"><g clip-path="url(#ee6425bb43)"><path stroke-linecap="butt" transform="matrix(0.531212, 0.531212, -0.525638, 0.525638, 19.032438, 128.62618)" fill="none" stroke-linejoin="miter" d="M -0.00222838 0.00000782346 L 54.736993 0.00000782346 L 54.74067 26.154958 L 0.00144835 26.154958 L -0.00222838 0.00000782346 " stroke="#1b5d1d" stroke-width="4" stroke-opacity="1" stroke-miterlimit="4"/></g></g></g></g><g clip-path="url(#6a76b403a0)"><g clip-path="url(#4c2c686081)"><g clip-path="url(#26a1ca3207)"><path fill="#d3d3d3" d="M 77.789062 156.675781 L 13.863281 174.101562 L -3.5625 110.179688 L 60.363281 92.75 Z M 77.789062 156.675781 " fill-opacity="1" fill-rule="nonzero"/></g></g></g><g clip-path="url(#fe0970f422)"><g clip-path="url(#4080baa327)"><g clip-path="url(#9fe10429ba)"><g clip-path="url(#e72df64ae4)"><path stroke-linecap="butt" transform="matrix(-0.724812, 0.19759, -0.19759, -0.724812, 77.78777, 156.676434)" fill="none" stroke-linejoin="miter" d="M 44.298618 -0.000423279 L 88.594918 44.297907 L 44.296587 88.594206 L 0.000287935 44.295876 L 44.298618 -0.000423279 " stroke="#1b5d1d" stroke-width="4" stroke-opacity="1" stroke-miterlimit="4"/></g></g></g></g><g clip-path="url(#2c9e057b66)"><g clip-path="url(#3225f600f2)"><g clip-path="url(#a0a3370c54)"><path fill="#d3d3d3" d="M 88.585938 134.78125 L 24.949219 174.101562 L -14.371094 110.464844 L 49.265625 71.148438 Z M 88.585938 134.78125 " fill-opacity="1" fill-rule="nonzero"/></g></g></g><g clip-path="url(#aee3d4c634)"><g clip-path="url(#7db34c3a07)"><g clip-path="url(#ec1da5b82f)"><g clip-path="url(#65f684c9dc)"><path stroke-linecap="butt" transform="matrix(-0.636084, 0.393034, -0.393034, -0.636084, 88.585073, 134.781744)" fill="none" stroke-linejoin="miter" d="M 50.006874 -0.00211767 L 100.014404 50.008459 L 50.008272 100.018735 L 0.000741628 50.008159 L 50.006874 -0.00211767 " stroke="#1b5d1d" stroke-width="4" stroke-opacity="1" stroke-miterlimit="4"/></g></g></g></g><g clip-path="url(#87bee31367)"><g clip-path="url(#b610fe391b)"><path fill="#d3d3d3" d="M -51.285156 86 L 61.863281 -27.148438 L 175.011719 86 L 61.863281 199.148438 Z M -51.285156 86 " fill-opacity="1" fill-rule="nonzero"/></g></g><g clip-path="url(#28d9d9fee7)"><g clip-path="url(#21bcc4163d)"><g clip-path="url(#cf8fdc4126)"><path stroke-linecap="butt" transform="matrix(0.528875, -0.528875, 0.528875, 0.528875, -51.285075, 85.999058)" fill="none" stroke-linejoin="miter" d="M 106.984765 0.000813934 L 213.966804 106.982853 L 106.981072 213.968586 L -0.000967255 106.986546 L 106.984765 0.000813934 " stroke="#1b5d1d" stroke-width="4" stroke-opacity="1" stroke-miterlimit="4"/></g></g></g><g fill="#1b5d1d" fill-opacity="1"><g transform="translate(13.988417, 112.641231)"><g><path d="M 20.65625 -25.9375 L 13.828125 -18.84375 L 13.828125 0 L 6.46875 0 L 6.46875 -55.78125 L 13.828125 -55.78125 L 13.828125 -28.203125 L 38.625 -55.78125 L 47.515625 -55.78125 L 25.5625 -31.15625 L 49.234375 0 L 40.421875 0 Z M 20.65625 -25.9375 "/></g></g></g><g fill="#1b5d1d" fill-opacity="1"><g transform="translate(63.174819, 112.641231)"><g><path d="M 22.90625 -24.859375 C 16.601562 -26.679688 12.015625 -28.910156 9.140625 -31.546875 C 6.265625 -34.191406 4.828125 -37.457031 4.828125 -41.34375 C 4.828125 -45.738281 6.582031 -49.367188 10.09375 -52.234375 C 13.601562 -55.109375 18.171875 -56.546875 23.796875 -56.546875 C 27.628906 -56.546875 31.046875 -55.804688 34.046875 -54.328125 C 37.046875 -52.847656 39.367188 -50.804688 41.015625 -48.203125 C 42.660156 -45.597656 43.484375 -42.75 43.484375 -39.65625 L 36.09375 -39.65625 C 36.09375 -43.03125 35.019531 -45.679688 32.875 -47.609375 C 30.726562 -49.535156 27.703125 -50.5 23.796875 -50.5 C 20.171875 -50.5 17.34375 -49.695312 15.3125 -48.09375 C 13.28125 -46.5 12.265625 -44.285156 12.265625 -41.453125 C 12.265625 -39.179688 13.226562 -37.257812 15.15625 -35.6875 C 17.082031 -34.113281 20.363281 -32.675781 25 -31.375 C 29.632812 -30.070312 33.257812 -28.632812 35.875 -27.0625 C 38.5 -25.5 40.441406 -23.664062 41.703125 -21.5625 C 42.972656 -19.46875 43.609375 -17.003906 43.609375 -14.171875 C 43.609375 -9.648438 41.84375 -6.03125 38.3125 -3.3125 C 34.789062 -0.59375 30.078125 0.765625 24.171875 0.765625 C 20.335938 0.765625 16.757812 0.03125 13.4375 -1.4375 C 10.125 -2.90625 7.566406 -4.914062 5.765625 -7.46875 C 3.960938 -10.019531 3.0625 -12.921875 3.0625 -16.171875 L 10.453125 -16.171875 C 10.453125 -12.796875 11.695312 -10.128906 14.1875 -8.171875 C 16.6875 -6.222656 20.015625 -5.25 24.171875 -5.25 C 28.054688 -5.25 31.03125 -6.039062 33.09375 -7.625 C 35.164062 -9.207031 36.203125 -11.363281 36.203125 -14.09375 C 36.203125 -16.832031 35.242188 -18.945312 33.328125 -20.4375 C 31.410156 -21.9375 27.9375 -23.410156 22.90625 -24.859375 Z M 22.90625 -24.859375 "/></g></g></g></svg>